<mxfile host="app.diagrams.net" modified="2021-02-18T17:17:43.173Z" agent="5.0 (Windows NT 10.0; Win64; x64) AppleWebKit/537.36 (KHTML, like Gecko) Chrome/88.0.4324.150 Safari/537.36 Edg/88.0.705.68" etag="dRuiqeV6b2nU8cKlu-XU" version="14.4.2" type="github">
  <diagram id="R2lEEEUBdFMjLlhIrx00" name="Page-1">
    <mxGraphModel dx="1422" dy="768" grid="1" gridSize="10" guides="1" tooltips="1" connect="1" arrows="1" fold="1" page="1" pageScale="1" pageWidth="1100" pageHeight="850" math="0" shadow="0" extFonts="Permanent Marker^https://fonts.googleapis.com/css?family=Permanent+Marker">
      <root>
        <mxCell id="0" />
        <mxCell id="1" parent="0" />
        <mxCell id="WZvMf30knuckX4Qje_Ha-34" style="edgeStyle=orthogonalEdgeStyle;rounded=0;orthogonalLoop=1;jettySize=auto;html=1;entryX=0.5;entryY=0;entryDx=0;entryDy=0;endArrow=none;endFill=0;" parent="1" source="WZvMf30knuckX4Qje_Ha-1" target="WZvMf30knuckX4Qje_Ha-8" edge="1">
          <mxGeometry relative="1" as="geometry" />
        </mxCell>
        <mxCell id="WZvMf30knuckX4Qje_Ha-1" value="Supervises" style="shape=rhombus;perimeter=rhombusPerimeter;whiteSpace=wrap;html=1;align=center;" parent="1" vertex="1">
          <mxGeometry x="90" y="290" width="120" height="60" as="geometry" />
        </mxCell>
        <mxCell id="WZvMf30knuckX4Qje_Ha-54" style="edgeStyle=none;rounded=0;orthogonalLoop=1;jettySize=auto;html=1;exitX=0.5;exitY=1;exitDx=0;exitDy=0;entryX=0.5;entryY=0;entryDx=0;entryDy=0;endArrow=none;endFill=0;" parent="1" source="WZvMf30knuckX4Qje_Ha-4" target="WZvMf30knuckX4Qje_Ha-57" edge="1">
          <mxGeometry relative="1" as="geometry">
            <mxPoint x="980" y="540" as="targetPoint" />
          </mxGeometry>
        </mxCell>
        <mxCell id="WZvMf30knuckX4Qje_Ha-65" style="edgeStyle=none;rounded=0;orthogonalLoop=1;jettySize=auto;html=1;endArrow=none;endFill=0;" parent="1" source="WZvMf30knuckX4Qje_Ha-4" edge="1">
          <mxGeometry relative="1" as="geometry">
            <mxPoint x="980" y="390" as="targetPoint" />
          </mxGeometry>
        </mxCell>
        <mxCell id="WZvMf30knuckX4Qje_Ha-66" style="edgeStyle=none;rounded=0;orthogonalLoop=1;jettySize=auto;html=1;entryX=0.5;entryY=1;entryDx=0;entryDy=0;endArrow=none;endFill=0;" parent="1" source="WZvMf30knuckX4Qje_Ha-4" target="WZvMf30knuckX4Qje_Ha-50" edge="1">
          <mxGeometry relative="1" as="geometry" />
        </mxCell>
        <mxCell id="WZvMf30knuckX4Qje_Ha-67" style="edgeStyle=none;rounded=0;orthogonalLoop=1;jettySize=auto;html=1;entryX=0.7;entryY=0.875;entryDx=0;entryDy=0;entryPerimeter=0;endArrow=none;endFill=0;" parent="1" source="WZvMf30knuckX4Qje_Ha-4" target="WZvMf30knuckX4Qje_Ha-51" edge="1">
          <mxGeometry relative="1" as="geometry" />
        </mxCell>
        <mxCell id="WZvMf30knuckX4Qje_Ha-4" value="Drink" style="whiteSpace=wrap;html=1;align=center;" parent="1" vertex="1">
          <mxGeometry x="930" y="432.5" width="100" height="40" as="geometry" />
        </mxCell>
        <mxCell id="WZvMf30knuckX4Qje_Ha-32" style="rounded=0;orthogonalLoop=1;jettySize=auto;html=1;exitX=0.25;exitY=1;exitDx=0;exitDy=0;endArrow=none;endFill=0;" parent="1" source="WZvMf30knuckX4Qje_Ha-5" target="WZvMf30knuckX4Qje_Ha-1" edge="1">
          <mxGeometry relative="1" as="geometry" />
        </mxCell>
        <mxCell id="WZvMf30knuckX4Qje_Ha-33" style="rounded=0;orthogonalLoop=1;jettySize=auto;html=1;exitX=0.75;exitY=1;exitDx=0;exitDy=0;endArrow=none;endFill=0;" parent="1" source="WZvMf30knuckX4Qje_Ha-5" target="WZvMf30knuckX4Qje_Ha-12" edge="1">
          <mxGeometry relative="1" as="geometry" />
        </mxCell>
        <mxCell id="WZvMf30knuckX4Qje_Ha-36" style="edgeStyle=none;rounded=0;orthogonalLoop=1;jettySize=auto;html=1;exitX=0;exitY=0;exitDx=0;exitDy=0;entryX=0.71;entryY=0.963;entryDx=0;entryDy=0;entryPerimeter=0;endArrow=none;endFill=0;" parent="1" source="WZvMf30knuckX4Qje_Ha-5" target="WZvMf30knuckX4Qje_Ha-22" edge="1">
          <mxGeometry relative="1" as="geometry" />
        </mxCell>
        <mxCell id="WZvMf30knuckX4Qje_Ha-5" value="Activity" style="whiteSpace=wrap;html=1;align=center;" parent="1" vertex="1">
          <mxGeometry x="280" y="160" width="100" height="40" as="geometry" />
        </mxCell>
        <mxCell id="WZvMf30knuckX4Qje_Ha-68" style="edgeStyle=none;rounded=0;orthogonalLoop=1;jettySize=auto;html=1;entryX=0.437;entryY=0.018;entryDx=0;entryDy=0;entryPerimeter=0;endArrow=none;endFill=0;" parent="1" source="WZvMf30knuckX4Qje_Ha-6" target="WZvMf30knuckX4Qje_Ha-19" edge="1">
          <mxGeometry relative="1" as="geometry" />
        </mxCell>
        <mxCell id="WZvMf30knuckX4Qje_Ha-6" value="Room" style="whiteSpace=wrap;html=1;align=center;" parent="1" vertex="1">
          <mxGeometry x="280" y="670" width="100" height="40" as="geometry" />
        </mxCell>
        <mxCell id="WZvMf30knuckX4Qje_Ha-39" style="edgeStyle=none;rounded=0;orthogonalLoop=1;jettySize=auto;html=1;entryX=0.5;entryY=0;entryDx=0;entryDy=0;endArrow=none;endFill=0;" parent="1" source="WZvMf30knuckX4Qje_Ha-7" target="WZvMf30knuckX4Qje_Ha-14" edge="1">
          <mxGeometry relative="1" as="geometry" />
        </mxCell>
        <mxCell id="WZvMf30knuckX4Qje_Ha-47" style="edgeStyle=none;rounded=0;orthogonalLoop=1;jettySize=auto;html=1;endArrow=none;endFill=0;entryX=0;entryY=0.5;entryDx=0;entryDy=0;" parent="1" source="WZvMf30knuckX4Qje_Ha-7" target="WZvMf30knuckX4Qje_Ha-9" edge="1">
          <mxGeometry relative="1" as="geometry">
            <mxPoint x="700" y="458" as="targetPoint" />
          </mxGeometry>
        </mxCell>
        <mxCell id="WZvMf30knuckX4Qje_Ha-7" value="Student" style="whiteSpace=wrap;html=1;align=center;" parent="1" vertex="1">
          <mxGeometry x="490" y="430" width="100" height="45" as="geometry" />
        </mxCell>
        <mxCell id="WZvMf30knuckX4Qje_Ha-38" style="edgeStyle=none;rounded=0;orthogonalLoop=1;jettySize=auto;html=1;exitX=0.5;exitY=1;exitDx=0;exitDy=0;entryX=0.5;entryY=0;entryDx=0;entryDy=0;endArrow=none;endFill=0;" parent="1" source="WZvMf30knuckX4Qje_Ha-8" target="WZvMf30knuckX4Qje_Ha-11" edge="1">
          <mxGeometry relative="1" as="geometry" />
        </mxCell>
        <mxCell id="WZvMf30knuckX4Qje_Ha-8" value="Teacher" style="whiteSpace=wrap;html=1;align=center;" parent="1" vertex="1">
          <mxGeometry x="100" y="435" width="100" height="40" as="geometry" />
        </mxCell>
        <mxCell id="WZvMf30knuckX4Qje_Ha-49" style="edgeStyle=none;rounded=0;orthogonalLoop=1;jettySize=auto;html=1;exitX=1;exitY=0.5;exitDx=0;exitDy=0;entryX=0;entryY=0.5;entryDx=0;entryDy=0;endArrow=none;endFill=0;" parent="1" source="WZvMf30knuckX4Qje_Ha-9" target="WZvMf30knuckX4Qje_Ha-4" edge="1">
          <mxGeometry relative="1" as="geometry" />
        </mxCell>
        <mxCell id="WZvMf30knuckX4Qje_Ha-9" value="Buys" style="shape=rhombus;perimeter=rhombusPerimeter;whiteSpace=wrap;html=1;align=center;" parent="1" vertex="1">
          <mxGeometry x="710" y="422.5" width="120" height="60" as="geometry" />
        </mxCell>
        <mxCell id="WZvMf30knuckX4Qje_Ha-43" style="edgeStyle=none;rounded=0;orthogonalLoop=1;jettySize=auto;html=1;exitX=0.5;exitY=1;exitDx=0;exitDy=0;entryX=0;entryY=0.5;entryDx=0;entryDy=0;endArrow=none;endFill=0;" parent="1" source="WZvMf30knuckX4Qje_Ha-11" target="WZvMf30knuckX4Qje_Ha-6" edge="1">
          <mxGeometry relative="1" as="geometry" />
        </mxCell>
        <mxCell id="WZvMf30knuckX4Qje_Ha-11" value="has" style="shape=rhombus;perimeter=rhombusPerimeter;whiteSpace=wrap;html=1;align=center;" parent="1" vertex="1">
          <mxGeometry x="90" y="550" width="120" height="60" as="geometry" />
        </mxCell>
        <mxCell id="WZvMf30knuckX4Qje_Ha-35" style="edgeStyle=orthogonalEdgeStyle;rounded=0;orthogonalLoop=1;jettySize=auto;html=1;entryX=0.4;entryY=-0.037;entryDx=0;entryDy=0;entryPerimeter=0;endArrow=none;endFill=0;" parent="1" source="WZvMf30knuckX4Qje_Ha-12" target="WZvMf30knuckX4Qje_Ha-7" edge="1">
          <mxGeometry relative="1" as="geometry" />
        </mxCell>
        <mxCell id="WZvMf30knuckX4Qje_Ha-12" value="participates" style="shape=rhombus;perimeter=rhombusPerimeter;whiteSpace=wrap;html=1;align=center;" parent="1" vertex="1">
          <mxGeometry x="470" y="285" width="120" height="60" as="geometry" />
        </mxCell>
        <mxCell id="WZvMf30knuckX4Qje_Ha-40" style="edgeStyle=none;rounded=0;orthogonalLoop=1;jettySize=auto;html=1;exitX=0.5;exitY=1;exitDx=0;exitDy=0;entryX=1;entryY=0.5;entryDx=0;entryDy=0;endArrow=none;endFill=0;" parent="1" source="WZvMf30knuckX4Qje_Ha-14" target="WZvMf30knuckX4Qje_Ha-6" edge="1">
          <mxGeometry relative="1" as="geometry" />
        </mxCell>
        <mxCell id="WZvMf30knuckX4Qje_Ha-14" value="has" style="shape=rhombus;perimeter=rhombusPerimeter;whiteSpace=wrap;html=1;align=center;" parent="1" vertex="1">
          <mxGeometry x="480" y="550" width="120" height="60" as="geometry" />
        </mxCell>
        <mxCell id="WZvMf30knuckX4Qje_Ha-19" value="type" style="ellipse;whiteSpace=wrap;html=1;align=center;" parent="1" vertex="1">
          <mxGeometry x="340" y="740" width="100" height="40" as="geometry" />
        </mxCell>
        <mxCell id="WZvMf30knuckX4Qje_Ha-21" value="sales price" style="ellipse;whiteSpace=wrap;html=1;align=center;" parent="1" vertex="1">
          <mxGeometry x="910" y="345" width="100" height="40" as="geometry" />
        </mxCell>
        <mxCell id="WZvMf30knuckX4Qje_Ha-22" value="name" style="ellipse;whiteSpace=wrap;html=1;align=center;" parent="1" vertex="1">
          <mxGeometry x="200" y="110" width="100" height="40" as="geometry" />
        </mxCell>
        <mxCell id="WZvMf30knuckX4Qje_Ha-50" value="name" style="ellipse;whiteSpace=wrap;html=1;align=center;" parent="1" vertex="1">
          <mxGeometry x="1000" y="382.5" width="100" height="40" as="geometry" />
        </mxCell>
        <mxCell id="WZvMf30knuckX4Qje_Ha-51" value="stock" style="ellipse;whiteSpace=wrap;html=1;align=center;" parent="1" vertex="1">
          <mxGeometry x="830" y="385" width="100" height="40" as="geometry" />
        </mxCell>
        <mxCell id="WZvMf30knuckX4Qje_Ha-57" value="Drink type" style="ellipse;whiteSpace=wrap;html=1;align=center;" parent="1" vertex="1">
          <mxGeometry x="940" y="502.5" width="100" height="60" as="geometry" />
        </mxCell>
        <mxCell id="TRqnPqRV1e1mEs42PXft-5" value="&lt;font style=&quot;font-size: 15px&quot;&gt;n&lt;/font&gt;" style="text;html=1;strokeColor=none;fillColor=none;align=center;verticalAlign=middle;whiteSpace=wrap;rounded=0;" parent="1" vertex="1">
          <mxGeometry x="110" y="260" width="40" height="20" as="geometry" />
        </mxCell>
        <mxCell id="TRqnPqRV1e1mEs42PXft-6" value="&lt;font style=&quot;font-size: 15px&quot;&gt;m&lt;/font&gt;" style="text;html=1;strokeColor=none;fillColor=none;align=center;verticalAlign=middle;whiteSpace=wrap;rounded=0;" parent="1" vertex="1">
          <mxGeometry x="100" y="350" width="40" height="20" as="geometry" />
        </mxCell>
        <mxCell id="TRqnPqRV1e1mEs42PXft-7" value="1" style="text;html=1;strokeColor=none;fillColor=none;align=center;verticalAlign=middle;whiteSpace=wrap;rounded=0;" parent="1" vertex="1">
          <mxGeometry x="720" y="170" width="40" height="20" as="geometry" />
        </mxCell>
        <mxCell id="TRqnPqRV1e1mEs42PXft-8" value="&lt;font style=&quot;font-size: 15px&quot;&gt;T&lt;/font&gt;" style="text;html=1;strokeColor=none;fillColor=none;align=center;verticalAlign=middle;whiteSpace=wrap;rounded=0;" parent="1" vertex="1">
          <mxGeometry x="100" y="402.5" width="40" height="20" as="geometry" />
        </mxCell>
        <mxCell id="TRqnPqRV1e1mEs42PXft-9" value="&lt;font style=&quot;font-size: 15px&quot;&gt;O&lt;/font&gt;" style="text;html=1;strokeColor=none;fillColor=none;align=center;verticalAlign=middle;whiteSpace=wrap;rounded=0;" parent="1" vertex="1">
          <mxGeometry x="390" y="200" width="40" height="20" as="geometry" />
        </mxCell>
        <mxCell id="TRqnPqRV1e1mEs42PXft-14" value="&lt;font style=&quot;font-size: 15px&quot;&gt;n&lt;/font&gt;" style="text;html=1;strokeColor=none;fillColor=none;align=center;verticalAlign=middle;whiteSpace=wrap;rounded=0;" parent="1" vertex="1">
          <mxGeometry x="490" y="265" width="40" height="20" as="geometry" />
        </mxCell>
        <mxCell id="TRqnPqRV1e1mEs42PXft-15" value="&lt;font style=&quot;font-size: 15px&quot;&gt;m&lt;/font&gt;" style="text;html=1;strokeColor=none;fillColor=none;align=center;verticalAlign=middle;whiteSpace=wrap;rounded=0;" parent="1" vertex="1">
          <mxGeometry x="540" y="345" width="40" height="20" as="geometry" />
        </mxCell>
        <mxCell id="TRqnPqRV1e1mEs42PXft-17" value="&lt;font style=&quot;font-size: 15px&quot;&gt;T&lt;/font&gt;" style="text;html=1;strokeColor=none;fillColor=none;align=center;verticalAlign=middle;whiteSpace=wrap;rounded=0;" parent="1" vertex="1">
          <mxGeometry x="230" y="190" width="40" height="20" as="geometry" />
        </mxCell>
        <mxCell id="TRqnPqRV1e1mEs42PXft-18" value="&lt;font style=&quot;font-size: 15px&quot;&gt;T&lt;/font&gt;" style="text;html=1;strokeColor=none;fillColor=none;align=center;verticalAlign=middle;whiteSpace=wrap;rounded=0;" parent="1" vertex="1">
          <mxGeometry x="540" y="395" width="40" height="20" as="geometry" />
        </mxCell>
        <mxCell id="TRqnPqRV1e1mEs42PXft-24" value="&lt;span style=&quot;font-size: 15px&quot;&gt;1&lt;/span&gt;" style="text;html=1;strokeColor=none;fillColor=none;align=center;verticalAlign=middle;whiteSpace=wrap;rounded=0;" parent="1" vertex="1">
          <mxGeometry x="91" y="530" width="40" height="20" as="geometry" />
        </mxCell>
        <mxCell id="TRqnPqRV1e1mEs42PXft-25" value="&lt;span style=&quot;font-size: 15px&quot;&gt;n&lt;/span&gt;" style="text;html=1;strokeColor=none;fillColor=none;align=center;verticalAlign=middle;whiteSpace=wrap;rounded=0;" parent="1" vertex="1">
          <mxGeometry x="100" y="610" width="40" height="20" as="geometry" />
        </mxCell>
        <mxCell id="TRqnPqRV1e1mEs42PXft-26" value="&lt;span style=&quot;font-size: 15px&quot;&gt;1&lt;/span&gt;" style="text;html=1;strokeColor=none;fillColor=none;align=center;verticalAlign=middle;whiteSpace=wrap;rounded=0;" parent="1" vertex="1">
          <mxGeometry x="540" y="530" width="40" height="20" as="geometry" />
        </mxCell>
        <mxCell id="TRqnPqRV1e1mEs42PXft-27" value="&lt;span style=&quot;font-size: 15px&quot;&gt;n&lt;/span&gt;" style="text;html=1;strokeColor=none;fillColor=none;align=center;verticalAlign=middle;whiteSpace=wrap;rounded=0;" parent="1" vertex="1">
          <mxGeometry x="520" y="620" width="40" height="20" as="geometry" />
        </mxCell>
        <mxCell id="TRqnPqRV1e1mEs42PXft-29" value="&lt;font style=&quot;font-size: 15px&quot;&gt;T&lt;/font&gt;" style="text;html=1;strokeColor=none;fillColor=none;align=center;verticalAlign=middle;whiteSpace=wrap;rounded=0;" parent="1" vertex="1">
          <mxGeometry x="110" y="482.5" width="40" height="20" as="geometry" />
        </mxCell>
        <mxCell id="TRqnPqRV1e1mEs42PXft-30" value="&lt;font style=&quot;font-size: 15px&quot;&gt;O&lt;/font&gt;" style="text;html=1;strokeColor=none;fillColor=none;align=center;verticalAlign=middle;whiteSpace=wrap;rounded=0;" parent="1" vertex="1">
          <mxGeometry x="220" y="680" width="40" height="20" as="geometry" />
        </mxCell>
        <mxCell id="TRqnPqRV1e1mEs42PXft-31" value="&lt;font style=&quot;font-size: 15px&quot;&gt;O&lt;/font&gt;" style="text;html=1;strokeColor=none;fillColor=none;align=center;verticalAlign=middle;whiteSpace=wrap;rounded=0;" parent="1" vertex="1">
          <mxGeometry x="430" y="670" width="40" height="20" as="geometry" />
        </mxCell>
        <mxCell id="TRqnPqRV1e1mEs42PXft-32" value="&lt;font style=&quot;font-size: 15px&quot;&gt;T&lt;/font&gt;" style="text;html=1;strokeColor=none;fillColor=none;align=center;verticalAlign=middle;whiteSpace=wrap;rounded=0;" parent="1" vertex="1">
          <mxGeometry x="530" y="490" width="40" height="20" as="geometry" />
        </mxCell>
        <mxCell id="TRqnPqRV1e1mEs42PXft-35" value="&lt;font style=&quot;font-size: 15px&quot;&gt;m&lt;/font&gt;" style="text;html=1;strokeColor=none;fillColor=none;align=center;verticalAlign=middle;whiteSpace=wrap;rounded=0;" parent="1" vertex="1">
          <mxGeometry x="810" y="422.5" width="40" height="20" as="geometry" />
        </mxCell>
        <mxCell id="TRqnPqRV1e1mEs42PXft-36" value="&lt;font style=&quot;font-size: 15px&quot;&gt;n&lt;/font&gt;" style="text;html=1;strokeColor=none;fillColor=none;align=center;verticalAlign=middle;whiteSpace=wrap;rounded=0;" parent="1" vertex="1">
          <mxGeometry x="680" y="422.5" width="40" height="20" as="geometry" />
        </mxCell>
        <mxCell id="TRqnPqRV1e1mEs42PXft-37" value="" style="text;html=1;strokeColor=none;fillColor=none;align=center;verticalAlign=middle;whiteSpace=wrap;rounded=0;" parent="1" vertex="1">
          <mxGeometry x="690" y="530" width="40" height="20" as="geometry" />
        </mxCell>
        <mxCell id="TRqnPqRV1e1mEs42PXft-45" value="&lt;font style=&quot;font-size: 15px&quot;&gt;O&lt;/font&gt;" style="text;html=1;strokeColor=none;fillColor=none;align=center;verticalAlign=middle;whiteSpace=wrap;rounded=0;" parent="1" vertex="1">
          <mxGeometry x="600" y="425" width="40" height="20" as="geometry" />
        </mxCell>
        <mxCell id="TRqnPqRV1e1mEs42PXft-47" value="&lt;font style=&quot;font-size: 15px&quot;&gt;O&lt;/font&gt;" style="text;html=1;strokeColor=none;fillColor=none;align=center;verticalAlign=middle;whiteSpace=wrap;rounded=0;" parent="1" vertex="1">
          <mxGeometry x="880" y="425" width="40" height="20" as="geometry" />
        </mxCell>
        <mxCell id="TRqnPqRV1e1mEs42PXft-48" value="" style="text;html=1;strokeColor=none;fillColor=none;align=center;verticalAlign=middle;whiteSpace=wrap;rounded=0;" parent="1" vertex="1">
          <mxGeometry x="610" y="475" width="40" height="20" as="geometry" />
        </mxCell>
      </root>
    </mxGraphModel>
  </diagram>
</mxfile>
